<svg width="202px" height="46px" viewBox="0 0 202 46" version="1.1" xmlns="http://www.w3.org/2000/svg" xmlns:xlink="http://www.w3.org/1999/xlink">
  <g id="Page-1" stroke="none" stroke-width="1" fill="none" fill-rule="evenodd">
    <g id="Desktop-HD" transform="translate(-30, -25)" fill="#FEFEFE">
      <g id="main-navigation">
        <g id="Logo" transform="translate(30, 25)">
          <g id="Symbol">
            <path d="M5.13858594,35.9039492 L3.24148145,35.9039492 C1.6695108,35.9039492 0.394721314,34.6385841 0.394721314,33.0782349 L0.394721314,13.2427429 C0.394721314,11.6823937 1.6695108,10.4170286 3.24148145,10.4170286 L4.82669284,10.4170286 C6.39866348,10.4170286 7.67345297,11.6823937 7.67345297,13.2427429 L7.67345297,33.3878222 C7.67345297,34.7773143 6.5384269,35.9039492 5.13858594,35.9039492" id="Fill-20"></path>
            <path d="M45.1219572,45.7288921 L43.2248527,45.7288921 C41.6528821,45.7288921 40.3780926,44.463527 40.3780926,42.9031778 L40.3780926,3.41765397 C40.3780926,1.85730476 41.6528821,0.591939683 43.2248527,0.591939683 L44.8100641,0.591939683 C46.3820348,0.591939683 47.6568243,1.85730476 47.6568243,3.41765397 L47.6568243,43.2127651 C47.6568243,44.6022571 46.5217982,45.7288921 45.1219572,45.7288921" id="Fill-22"></path>
            <path d="M18.4663519,45.7288921 L16.5692474,45.7288921 C14.9972767,45.7288921 13.7224872,44.463527 13.7224872,42.9031778 L13.7224872,3.41765397 C13.7224872,1.85730476 14.9972767,0.591939683 16.5692474,0.591939683 L18.1544588,0.591939683 C19.7264294,0.591939683 21.0012189,1.85730476 21.0012189,3.41765397 L21.0012189,43.2127651 C21.0012189,44.6022571 19.8661928,45.7288921 18.4663519,45.7288921" id="Fill-24"></path>
            <path d="M58.4497967,35.9039492 L56.5526922,35.9039492 C54.9807216,35.9039492 53.7059321,34.6385841 53.7059321,33.0782349 L53.7059321,13.2427429 C53.7059321,11.6823937 54.9807216,10.4170286 56.5526922,10.4170286 L58.1379036,10.4170286 C59.7098743,10.4170286 60.9846637,11.6823937 60.9846637,13.2427429 L60.9846637,33.3878222 C60.9846637,34.7773143 59.8496377,35.9039492 58.4497967,35.9039492" id="Fill-26"></path>
            <path d="M31.7941913,36.703254 L29.8970868,36.703254 C28.3251162,36.703254 27.0503267,35.4378889 27.0503267,33.8775397 L27.0503267,14.605 C27.0503267,13.0439206 28.3251162,11.7792857 29.8970868,11.7792857 L31.4822982,11.7792857 C33.0542689,11.7792857 34.3290584,13.0439206 34.3290584,14.605 L34.3290584,34.187127 C34.3290584,35.576619 33.1940323,36.703254 31.7941913,36.703254" id="Fill-28"></path>
          </g>
          <g id="Acme" transform="translate(91.636364, 11.890909)">
            <path d="M12.2260715,14.0766588 L10.1329022,9.32619003 L10.1051849,9.32619003 L8.03870638,14.0766588 L12.2260715,14.0766588 Z M0.903041986,20.2378923 L9.52620137,0.86160139 C9.60935327,0.688876577 9.80234779,0.545118037 9.99431574,0.545118037 L10.2704622,0.545118037 C10.4624301,0.545118037 10.6554246,0.688876577 10.7385765,0.86160139 L19.3617359,20.2378923 C19.5270131,20.6123082 19.3063013,20.9867241 18.8936215,20.9867241 L15.8354797,20.9867241 C15.339648,20.9867241 15.1189362,20.8139993 14.8705071,20.2668586 L13.8788437,17.9924698 L6.38593416,17.9924698 L5.39427083,20.2958249 C5.25671091,20.6412745 4.9528472,20.9867241 4.4026075,20.9867241 L1.37115635,20.9867241 C0.958476582,20.9867241 0.737764765,20.6123082 0.903041986,20.2378923 L0.903041986,20.2378923 Z" id="Fill-30"></path>
            <path d="M41.0148998,0.545118037 C43.7702045,0.545118037 45.8089658,1.43770837 47.6824498,3.22288904 C47.9298523,3.45247358 47.9298523,3.7979232 47.7091405,4.02858056 L45.5605366,6.36090194 C45.3675421,6.56259303 45.064705,6.56259303 44.8717104,6.36090194 C43.8523298,5.41037906 42.5023948,4.89220462 41.1524597,4.89220462 C38.0399098,4.89220462 35.7527194,7.5989419 35.7527194,10.8238536 C35.7527194,14.0187262 38.0676271,16.667531 41.180177,16.667531 C42.4746775,16.667531 43.8800471,16.1783228 44.8717104,15.2857325 C45.064705,15.1130077 45.4229767,15.1130077 45.5882539,15.3146988 L47.7368578,17.7038799 C47.9298523,17.9055709 47.902135,18.2799868 47.7091405,18.4816779 C45.8356565,20.3816509 43.4673673,21.2742412 41.0148998,21.2742412 C35.5053168,21.2742412 31.0695226,16.6964973 31.0695226,10.9386459 C31.0695226,5.18079453 35.5053168,0.545118037 41.0148998,0.545118037" id="Fill-32"></path>
            <path d="M63.935668,1.00578906 C63.9633853,0.746165428 64.2107879,0.545547167 64.4314997,0.545547167 L64.8718968,0.545547167 C65.0104833,0.545547167 65.2578858,0.660339434 65.3410377,0.833064247 L71.7324413,13.2703236 L71.7868493,13.2703236 L78.178253,0.833064247 C78.2614049,0.660339434 78.5088074,0.545547167 78.6473939,0.545547167 L79.087791,0.545547167 C79.3085028,0.545547167 79.5559053,0.746165428 79.5836226,1.00578906 L82.6971991,20.3531137 C82.7516071,20.7275296 82.5042046,20.9860804 82.1736501,20.9860804 L78.9225137,20.9860804 C78.6740846,20.9860804 78.4266821,20.7564959 78.3989648,20.5258385 L77.1588723,11.6299743 L77.1044643,11.6299743 L72.4756755,20.958187 C72.3935502,21.1309118 72.1451211,21.2746703 72.0075612,21.2746703 L71.5117295,21.2746703 C71.3464523,21.2746703 71.1257405,21.1309118 71.0436151,20.958187 L66.3881356,11.6299743 L66.332701,11.6299743 L65.1203259,20.5258385 C65.0926086,20.7564959 64.8718968,20.9860804 64.5967769,20.9860804 L61.3456405,20.9860804 C61.0150861,20.9860804 60.7676835,20.7275296 60.8231181,20.3531137 L63.935668,1.00578906 Z" id="Fill-34"></path>
            <path d="M97.2424159,1.38009767 C97.2424159,1.0925806 97.4631277,0.832956964 97.7659648,0.832956964 L109.17112,0.832956964 C109.473957,0.832956964 109.694669,1.0925806 109.694669,1.38009767 L109.694669,4.51811057 C109.694669,4.80562765 109.473957,5.06525128 109.17112,5.06525128 L101.539624,5.06525128 L101.539624,8.63561263 L107.821185,8.63561263 C108.097331,8.63561263 108.344734,8.89416343 108.344734,9.18275334 L108.344734,12.3207662 C108.344734,12.6372496 108.097331,12.8679069 107.821185,12.8679069 L101.539624,12.8679069 L101.539624,16.7547516 L109.17112,16.7547516 C109.473957,16.7547516 109.694669,17.0133025 109.694669,17.3008195 L109.694669,20.4399053 C109.694669,20.7274223 109.473957,20.987046 109.17112,20.987046 L97.7659648,20.987046 C97.4631277,20.987046 97.2424159,20.7274223 97.2424159,20.4399053 L97.2424159,1.38009767 Z" id="Fill-36"></path>
          </g>
        </g>
      </g>
    </g>
  </g>
</svg>
